<svg width="48" height="48" viewBox="0 0 48 48" fill="none" xmlns="http://www.w3.org/2000/svg">
    <path d="M9.93994 7.74023V19.9302" stroke="currentColor" stroke-width="0.75" stroke-miterlimit="10" />
    <path
        d="M34.4099 11.25L31.9399 13.54L34.4099 15.83L31.9399 18.12L34.4099 20.4L31.9399 22.69L34.4099 24.98L31.9399 27.27"
        stroke="currentColor" stroke-width="0.75" stroke-miterlimit="10" />
    <path d="M34.4099 11.2402L31.9399 13.5302" stroke="currentColor" stroke-width="0.75" stroke-miterlimit="10" />
    <path d="M34.9199 1.61035L31.9399 4.37035" stroke="currentColor" stroke-width="0.75" stroke-miterlimit="10" />
    <path
        d="M31.9399 27.3301L34.4099 29.6201L31.9399 31.9101L34.4099 34.2001L31.9399 36.4801L34.4099 38.7701L31.9399 41.0601L34.4099 43.3501"
        stroke="currentColor" stroke-width="0.75" stroke-miterlimit="10" />
    <path d="M1 46.3506H46.38" stroke="currentColor" stroke-width="0.75" stroke-miterlimit="10" />
    <path d="M2.51025 5.72998L31.5103 1" stroke="currentColor" stroke-width="0.75" stroke-miterlimit="10" />
    <path d="M44.8901 5.72998L34.8901 1" stroke="currentColor" stroke-width="0.75" stroke-miterlimit="10" />
    <path d="M34.9198 11.25V43.35H31.5498V11.25" stroke="currentColor" stroke-width="0.75" stroke-miterlimit="10" />
    <path d="M36.3901 5.73047H44.8901V7.85046H36.3901" stroke="currentColor" stroke-width="0.75"
        stroke-miterlimit="10" />
    <path d="M31.5498 4.18997V1H34.9198V4.18997" stroke="currentColor" stroke-width="0.75" stroke-miterlimit="10" />
    <path d="M30.0803 7.85046H2.51025V5.73047H30.0803" stroke="currentColor" stroke-width="0.75"
        stroke-miterlimit="10" />
    <path d="M36.3898 4.19043H30.0698V11.2504H36.3898V4.19043Z" stroke="currentColor" stroke-width="0.75"
        stroke-miterlimit="10" />
    <path d="M14.1799 20.2402H4.91992V23.7702H14.1799V20.2402Z" stroke="currentColor" stroke-width="0.75"
        stroke-miterlimit="10" />
    <path d="M17.02 39.8203H1.52002V43.3503H17.02V39.8203Z" stroke="currentColor" stroke-width="0.75"
        stroke-miterlimit="10" />
    <path d="M17.02 35.3398H1.52002V38.8698H17.02V35.3398Z" stroke="currentColor" stroke-width="0.75"
        stroke-miterlimit="10" />
    <path d="M17.02 30.7998H1.52002V34.3298H17.02V30.7998Z" stroke="currentColor" stroke-width="0.75"
        stroke-miterlimit="10" />
</svg>