<svg width="48" height="48" viewBox="0 0 48 48" fill="none" xmlns="http://www.w3.org/2000/svg">
    <path d="M9.34985 8.4502H44.5999L43.1799 25.2802H13.1799" stroke="currentColor" stroke-width="0.75" />
    <path d="M10.6399 14.0596H44.1099" stroke="currentColor" stroke-width="0.75" />
    <path d="M11.9099 19.6699H43.6299" stroke="currentColor" stroke-width="0.75" />
    <path d="M28.2 8.4502V25.2802" stroke="currentColor" stroke-width="0.75" />
    <path d="M22.5898 8.4502V25.2802" stroke="currentColor" stroke-width="0.75" />
    <path d="M16.98 8.4502V25.2802" stroke="currentColor" stroke-width="0.75" />
    <path d="M39.4199 8.4502V25.2802" stroke="currentColor" stroke-width="0.75" />
    <path d="M33.8098 8.4502V25.2802" stroke="currentColor" stroke-width="0.75" />
    <path d="M1 46.6396H46.35" stroke="currentColor" stroke-width="0.75" />
    <path d="M2.76001 2L8.33002 4L14.7501 31.93L41.82 33.52" stroke="currentColor" stroke-width="0.75" />
    <path
        d="M14.5 37.5595C15.6156 37.5595 16.52 36.6552 16.52 35.5395C16.52 34.4239 15.6156 33.5195 14.5 33.5195C13.3844 33.5195 12.48 34.4239 12.48 35.5395C12.48 36.6552 13.3844 37.5595 14.5 37.5595Z"
        stroke="currentColor" stroke-width="0.75" />
    <path
        d="M41.8098 37.5595C42.9254 37.5595 43.8298 36.6552 43.8298 35.5395C43.8298 34.4239 42.9254 33.5195 41.8098 33.5195C40.6942 33.5195 39.7898 34.4239 39.7898 35.5395C39.7898 36.6552 40.6942 37.5595 41.8098 37.5595Z"
        stroke="currentColor" stroke-width="0.75" />
</svg>