<svg width="48" height="48" viewBox="0 0 48 48" fill="none" xmlns="http://www.w3.org/2000/svg">
    <path d="M1 2H46.36" stroke="currentColor" stroke-width="0.75" />
    <path d="M1 46.6201H46.35" stroke="currentColor" stroke-width="0.75" />
    <path
        d="M41.4199 13.29C36.2999 15.64 35.5099 20.22 29.5999 20.22C23.6899 20.22 23.6799 14.55 17.7699 14.55C11.8599 14.55 11.8499 20.22 5.93994 20.22"
        stroke="currentColor" stroke-width="0.75" />
    <path
        d="M37.3199 12.5201C37.3157 12.553 37.3181 12.5863 37.3269 12.6183C37.3358 12.6502 37.3508 12.68 37.3713 12.7061C37.3918 12.7322 37.4172 12.7539 37.4461 12.7701C37.4751 12.7862 37.507 12.7964 37.5399 12.8001L41.3399 13.3301L39.2599 16.5601C39.2414 16.5868 39.2286 16.6169 39.2221 16.6487C39.2156 16.6805 39.2156 16.7133 39.2221 16.7451C39.2287 16.7769 39.2417 16.807 39.2602 16.8336C39.2787 16.8602 39.3024 16.8829 39.3299 16.9001C39.3861 16.9353 39.4537 16.9477 39.5188 16.9347C39.5838 16.9217 39.6415 16.8843 39.6799 16.8301L41.9799 13.2701C42.0044 13.2344 42.0192 13.1929 42.0228 13.1498C42.0265 13.1066 42.0189 13.0633 42.0007 13.024C41.9826 12.9847 41.9545 12.9507 41.9193 12.9255C41.8841 12.9003 41.843 12.8846 41.7999 12.8801L37.5999 12.3001C37.5571 12.2906 37.5127 12.2906 37.4699 12.3001C37.4274 12.3198 37.391 12.3507 37.3646 12.3895C37.3382 12.4282 37.3227 12.4733 37.3199 12.5201Z"
        fill="currentColor" />
    <path
        d="M41.4199 20.2197C36.2999 22.5697 35.5099 27.1498 29.5999 27.1498C23.6899 27.1498 23.6799 21.4797 17.7699 21.4797C11.8599 21.4797 11.8499 27.1498 5.93994 27.1498"
        stroke="currentColor" stroke-width="0.75" />
    <path
        d="M37.3199 19.4498C37.3157 19.4827 37.3181 19.516 37.3269 19.548C37.3358 19.5799 37.3508 19.6098 37.3713 19.6358C37.3918 19.6619 37.4172 19.6836 37.4461 19.6998C37.4751 19.7159 37.507 19.7261 37.5399 19.7298L41.3399 20.2598L39.2599 23.4798C39.2415 23.5074 39.2288 23.5383 39.2223 23.5708C39.2159 23.6034 39.2159 23.6368 39.2224 23.6693C39.2289 23.7018 39.2417 23.7327 39.2602 23.7602C39.2786 23.7878 39.3023 23.8114 39.3299 23.8298C39.3574 23.8482 39.3884 23.861 39.4209 23.8674C39.4534 23.8738 39.4869 23.8738 39.5194 23.8673C39.5519 23.8608 39.5828 23.848 39.6103 23.8295C39.6379 23.8111 39.6615 23.7874 39.6799 23.7598L41.9799 20.1998C42.0044 20.1641 42.0192 20.1226 42.0228 20.0795C42.0265 20.0363 42.0189 19.993 42.0007 19.9537C41.9826 19.9143 41.9545 19.8804 41.9193 19.8552C41.8841 19.83 41.843 19.8143 41.7999 19.8098L37.5999 19.2298C37.5571 19.2203 37.5127 19.2203 37.4699 19.2298C37.4274 19.2495 37.391 19.2804 37.3646 19.3191C37.3382 19.3579 37.3227 19.403 37.3199 19.4498Z"
        fill="currentColor" />
    <path
        d="M41.4199 27.1494C36.2999 29.4994 35.5099 34.0794 29.5999 34.0794C23.6899 34.0794 23.6799 28.4094 17.7699 28.4094C11.8599 28.4094 11.8499 34.0794 5.93994 34.0794"
        stroke="currentColor" stroke-width="0.75" />
    <path
        d="M37.3199 26.3803C37.3157 26.4132 37.3181 26.4465 37.3269 26.4784C37.3358 26.5104 37.3508 26.5403 37.3713 26.5663C37.3918 26.5924 37.4172 26.6141 37.4461 26.6302C37.4751 26.6464 37.507 26.6566 37.5399 26.6603L41.3399 27.1803L39.2599 30.4103C39.2415 30.4378 39.2288 30.4688 39.2223 30.5013C39.2159 30.5338 39.2159 30.5673 39.2224 30.5998C39.2289 30.6323 39.2417 30.6632 39.2602 30.6907C39.2786 30.7183 39.3023 30.7419 39.3299 30.7603C39.3574 30.7787 39.3884 30.7915 39.4209 30.7979C39.4534 30.8043 39.4869 30.8043 39.5194 30.7978C39.5519 30.7913 39.5828 30.7784 39.6103 30.76C39.6379 30.7416 39.6615 30.7179 39.6799 30.6903L41.9799 27.1303C41.9993 27.0915 42.0093 27.0487 42.0093 27.0053C42.0093 26.9619 41.9993 26.9191 41.9799 26.8803C41.9599 26.8429 41.9314 26.8107 41.8966 26.7864C41.8619 26.762 41.8219 26.7463 41.7799 26.7403L37.5799 26.1603C37.5377 26.1458 37.492 26.1458 37.4499 26.1603C37.4111 26.1826 37.3788 26.2147 37.356 26.2532C37.3332 26.2918 37.3208 26.3355 37.3199 26.3803Z"
        fill="currentColor" />
</svg>