<svg width="48" height="48" viewBox="0 0 48 48" fill="none" xmlns="http://www.w3.org/2000/svg">
    <path d="M40.55 1V44.09" stroke="currentColor" stroke-width="0.75" stroke-miterlimit="10" />
    <path d="M46.3499 2.87988V46.7299" stroke="currentColor" stroke-width="0.75" stroke-miterlimit="10" />
    <path d="M1 2.87988V46.7299" stroke="currentColor" stroke-width="0.75" stroke-miterlimit="10" />
    <path d="M6.70996 1V44.09" stroke="currentColor" stroke-width="0.75" stroke-miterlimit="10" />
    <path d="M17.99 1V44.09" stroke="currentColor" stroke-width="0.75" stroke-miterlimit="10" />
    <path d="M29.27 1V44.09" stroke="currentColor" stroke-width="0.75" stroke-miterlimit="10" />
    <path
        d="M45.9999 46.3599C43.2099 46.3599 43.2099 44.0898 40.4199 44.0898C37.6299 44.0898 37.6298 46.3599 34.8398 46.3599C32.0498 46.3599 32.0498 44.0898 29.2598 44.0898C26.4698 44.0898 26.4699 46.3599 23.6799 46.3599C20.8899 46.3599 20.8999 44.0898 18.1099 44.0898C15.3199 44.0898 15.3198 46.3599 12.5298 46.3599C9.73985 46.3599 9.72982 44.0898 6.93982 44.0898C4.14982 44.0898 4.14985 46.3599 1.34985 46.3599"
        stroke="currentColor" stroke-width="0.75" stroke-miterlimit="10" />
    <path
        d="M45.9999 31.8501C43.2099 31.8501 43.2099 29.5801 40.4199 29.5801C37.6299 29.5801 37.6298 31.8501 34.8398 31.8501C32.0498 31.8501 32.0498 29.5801 29.2598 29.5801C26.4698 29.5801 26.4699 31.8501 23.6799 31.8501C20.8899 31.8501 20.8999 29.5801 18.1099 29.5801C15.3199 29.5801 15.3198 31.8501 12.5298 31.8501C9.73985 31.8501 9.72982 29.5801 6.93982 29.5801C4.14982 29.5801 4.14985 31.8501 1.34985 31.8501"
        stroke="currentColor" stroke-width="0.75" stroke-miterlimit="10" />
    <path
        d="M45.9999 17.5601C43.2099 17.5601 43.2099 15.29 40.4199 15.29C37.6299 15.29 37.6298 17.5601 34.8398 17.5601C32.0498 17.5601 32.0498 15.29 29.2598 15.29C26.4698 15.29 26.4699 17.5601 23.6799 17.5601C20.8899 17.5601 20.8999 15.29 18.1099 15.29C15.3199 15.29 15.3198 17.5601 12.5298 17.5601C9.73985 17.5601 9.72982 15.29 6.93982 15.29C4.14982 15.29 4.14985 17.5601 1.34985 17.5601"
        stroke="currentColor" stroke-width="0.75" stroke-miterlimit="10" />
    <path
        d="M45.9999 3.28955C43.2099 3.28955 43.2099 1.01953 40.4199 1.01953C37.6299 1.01953 37.6298 3.28955 34.8398 3.28955C32.0498 3.28955 32.0498 1.01953 29.2598 1.01953C26.4698 1.01953 26.4699 3.28955 23.6799 3.28955C20.8899 3.28955 20.8999 1.01953 18.1099 1.01953C15.3199 1.01953 15.3198 3.28955 12.5298 3.28955C9.73985 3.28955 9.72982 1.01953 6.93982 1.01953C4.14982 1.01953 4.14985 3.28955 1.34985 3.28955"
        stroke="currentColor" stroke-width="0.75" stroke-miterlimit="10" />
</svg>