<svg width="48" height="48" viewBox="0 0 48 48" fill="none" xmlns="http://www.w3.org/2000/svg">
    <path d="M36.8698 2H6.27979V33.18H36.8698V2Z" stroke="currentColor" stroke-width="0.7" stroke-miterlimit="10" />
    <path d="M36.9999 6.25H41.1599V37.43H9.93994V33.27" stroke="currentColor" stroke-width="0.75"
        stroke-miterlimit="10" />
    <path d="M1 46.6104H46.38" stroke="currentColor" stroke-width="0.75" />
    <path
        d="M15.6598 4.13965C15.6598 6.82965 14.5298 6.82964 14.5298 9.50964C14.5298 12.1896 15.6598 12.1996 15.6598 14.8896C15.6598 17.5796 14.5298 17.5796 14.5298 20.2696C14.5298 22.9596 15.6598 22.9596 15.6598 25.6496C15.6598 28.3396 14.5298 28.3396 14.5298 31.0396"
        stroke="currentColor" stroke-width="0.75" />
    <path
        d="M11.3402 4.13965C11.3402 6.82965 10.2002 6.82964 10.2002 9.50964C10.2002 12.1896 11.3402 12.1996 11.3402 14.8896C11.3402 17.5796 10.2002 17.5796 10.2002 20.2696C10.2002 22.9596 11.3402 22.9596 11.3402 25.6496C11.3402 28.3396 10.2002 28.3596 10.2002 31.0396"
        stroke="currentColor" stroke-width="0.75" />
    <path
        d="M20.0001 4.13965C20.0001 6.82965 18.8701 6.82964 18.8701 9.50964C18.8701 12.1896 20.0001 12.1996 20.0001 14.8896C20.0001 17.5796 18.8701 17.5796 18.8701 20.2696C18.8701 22.9596 20.0001 22.9596 20.0001 25.6496C20.0001 28.3396 18.8701 28.3396 18.8701 31.0396"
        stroke="currentColor" stroke-width="0.75" />
    <path
        d="M24.2999 4.13965C24.2999 6.82965 23.1699 6.82964 23.1699 9.50964C23.1699 12.1896 24.2999 12.1996 24.2999 14.8896C24.2999 17.5796 23.1699 17.5796 23.1699 20.2696C23.1699 22.9596 24.2999 22.9596 24.2999 25.6496C24.2999 28.3396 23.1699 28.3396 23.1699 31.0396"
        stroke="currentColor" stroke-width="0.75" />
    <path
        d="M28.6202 4.13965C28.6202 6.82965 27.4902 6.82964 27.4902 9.50964C27.4902 12.1896 28.6202 12.1996 28.6202 14.8896C28.6202 17.5796 27.4902 17.5796 27.4902 20.2696C27.4902 22.9596 28.6202 22.9596 28.6202 25.6496C28.6202 28.3396 27.4902 28.3396 27.4902 31.0396"
        stroke="currentColor" stroke-width="0.75" />
    <path
        d="M32.9999 4.13965C32.9999 6.82965 31.8599 6.82964 31.8599 9.50964C31.8599 12.1896 32.9999 12.1996 32.9999 14.8896C32.9999 17.5796 31.8599 17.5796 31.8599 20.2696C31.8599 22.9596 32.9999 22.9596 32.9999 25.6496C32.9999 28.3396 31.8599 28.3396 31.8599 31.0396"
        stroke="currentColor" stroke-width="0.75" />
</svg>