<svg width="249" height="66" viewBox="0 0 249 66" fill="none" xmlns="http://www.w3.org/2000/svg">
    <path
        d="M81.449 0H95.4116L104.72 9.3084L114.028 0H127.991L137.299 9.3084V32.5794L104.72 65.1588L72.1406 32.5794V9.3084L81.449 0Z"
        fill="currentColor" />
    <path
        d="M232.71 34.9065V60.5046L228.056 65.1588H200.131V34.9065L183.841 18.6168V0H207.112L216.42 9.3084L225.729 0H249V18.6168L232.71 34.9065Z"
        fill="currentColor" />
    <path d="M176.859 0L176.859 60.5046L172.205 65.1588L144.28 65.1588L144.28 0L176.859 0Z" fill="currentColor" />
    <path
        d="M0 55.8504V65.1588H60.5046L65.1588 60.5046V31.1832L55.8504 21.8748H18.6168V18.6168H55.8504L65.1588 9.3084V0H4.6542L0 4.6542V33.9757L9.3084 43.2841H46.542V46.542H9.3084L0 55.8504Z"
        fill="currentColor" />
</svg>