<svg width="60" height="60" viewBox="0 0 60 60" fill="none" xmlns="http://www.w3.org/2000/svg">
    <path
        d="M42.5 43C39.8212 45.9803 35.474 47.9447 31.3172 47.9447H30.3463C21.8511 47.9447 16.1068 41.2956 16.1068 30.8011V29.279C16.1068 18.7845 21.932 11.9751 30.3463 11.9751H30.9935C36.5761 11.9751 40.7023 15.0193 43.534 19.9061L52.8382 12.9365C48.0647 5.32596 39.8932 1 30.6699 1H30.1036C14.3269 1 3 12.7762 3 29.279V30.8011C3 47.4641 14.0841 59 30.3463 59H30.8317C40.2977 59 48.2265 54.7541 53 47.0635L47.5 43"
        stroke="currentColor" stroke-width="0.75" />
    <path
        d="M47.5478 40.3626V49.625H42.4522V40.3626V39.9876H42.0772H33.375V35.0124H42.0772H42.4522V34.6374V25.375H47.5478V34.6374V35.0124H47.9228H56.625V39.9876H47.9228H47.5478V40.3626Z"
        stroke="currentColor" stroke-width="0.75" />
</svg>