<svg width="60" height="60" viewBox="0 0 60 60" fill="none" xmlns="http://www.w3.org/2000/svg">
    <path
        d="M30.6081 58.6391C30.355 58.9594 30.15 59.2163 30 59.4031C29.85 59.2163 29.645 58.9594 29.3919 58.6391C28.8191 57.9141 28.0004 56.8642 27.0178 55.5659C25.0523 52.9688 22.4323 49.3794 19.813 45.4086C17.1929 41.4365 14.5782 37.0898 12.6198 32.9772C10.6559 28.8528 9.375 25.0102 9.375 22.0318L9.375 22.0318C9.37438 16.34 11.5407 10.8788 15.4024 6.82739C19.2623 2.77781 24.5058 0.461796 30 0.375046C35.4942 0.461796 40.7377 2.77781 44.5976 6.82739C48.4593 10.8788 50.6256 16.34 50.625 22.0318C50.625 25.0102 49.3441 28.8528 47.3802 32.9772C45.4218 37.0898 42.8071 41.4365 40.187 45.4086C37.5677 49.3794 34.9477 52.9688 32.9822 55.5659C31.9996 56.8642 31.1809 57.9141 30.6081 58.6391Z"
        stroke="currentColor" stroke-width="0.75" />
    <path
        d="M35.625 20C35.625 23.1066 33.1066 25.625 30 25.625C26.8934 25.625 24.375 23.1066 24.375 20C24.375 16.8934 26.8934 14.375 30 14.375C33.1066 14.375 35.625 16.8934 35.625 20Z"
        stroke="currentColor" stroke-width="0.75" />
</svg>