<svg width="60" height="60" viewBox="0 0 60 60" fill="none" xmlns="http://www.w3.org/2000/svg">
    <path
        d="M53.2237 5.14235C53.3864 5.19435 53.5209 5.23782 53.625 5.27166V5.42285V6.69531V11.8125L53.625 32.5C53.625 41.5749 47.7384 48.3528 41.773 52.889C38.7962 55.1526 35.8172 56.8441 33.5814 57.9697C32.4639 58.5323 31.5333 58.953 30.8831 59.2327C30.558 59.3725 30.3031 59.477 30.1301 59.5463C30.0797 59.5665 30.0362 59.5837 30 59.5979C29.9638 59.5837 29.9203 59.5665 29.8699 59.5463C29.6969 59.477 29.442 59.3725 29.1169 59.2327C28.4667 58.953 27.5361 58.5323 26.4186 57.9697C24.1828 56.8441 21.2038 55.1526 18.227 52.889C12.2616 48.3528 6.375 41.5749 6.375 32.5V32.3917V32.2836V32.1758V32.0681V31.9607V31.8535V31.7465V31.6398V31.5332V31.4269V31.3208V31.2149V31.1092V31.0037V30.8985V30.7934V30.6886V30.584V30.4797V30.3755V30.2715V30.1678V30.0643V29.961V29.8579V29.7551V29.6524V29.55V29.4478V29.3458V29.244V29.1425V29.0411V28.94V28.8391V28.7384V28.6379V28.5376V28.4376V28.3378V28.2382V28.1388V28.0396V27.9406V27.8419V27.7434V27.645V27.547V27.4491V27.3514V27.254V27.1567V27.0597V26.9629V26.8663V26.77V26.6738V26.5779V26.4822V26.3867V26.2914V26.1963V26.1015V26.0068V25.9124V25.8182V25.7242V25.6305V25.5369V25.4436V25.3504V25.2575V25.1648V25.0724V24.9801V24.888V24.7962V24.7046V24.6132V24.522V24.4311V24.3403V24.2498V24.1594V24.0693V23.9795V23.8898V23.8003V23.7111V23.622V23.5332V23.4446V23.3563V23.2681V23.1801V23.0924V23.0049V22.9176V22.8305V22.7436V22.657V22.5705V22.4843V22.3983V22.3125V22.2269V22.1415V22.0564V21.9714V21.8867V21.8022V21.7179V21.6338V21.55V21.4663V21.3829V21.2997V21.2167V21.1339V21.0513V20.9689V20.8868V20.8049V20.7232V20.6417V20.5604V20.4793V20.3984V20.3178V20.2374V20.1572V20.0772V19.9974V19.9178V19.8384V19.7593V19.6804V19.6017V19.5232V19.4449V19.3668V19.289V19.2113V19.1339V19.0567V18.9797V18.9029V18.8263V18.75V18.6738V18.5979V18.5222V18.4467V18.3714V18.2963V18.2215V18.1468V18.0724V17.9982V17.9242V17.8504V17.7768V17.7035V17.6303V17.5574V17.4847V17.4122V17.3399V17.2678V17.1959V17.1243V17.0529V16.9816V16.9106V16.8398V16.7692V16.6989V16.6287V16.5588V16.489V16.4195V16.3502V16.2811V16.2123V16.1436V16.0752V16.0069V15.9389V15.8711V15.8035V15.7361V15.6689V15.602V15.5352V15.4687V15.4024V15.3363V15.2704V15.2047V15.1393V15.074V15.009V14.9441V14.8795V14.8151V14.7509V14.687V14.6232V14.5597V14.4963V14.4332V14.3703V14.3076V14.2451V14.1828V14.1208V14.0589V13.9973V13.9359V13.8747V13.8137V13.7529V13.6923V13.632V13.5718V13.5119V13.4522V13.3926V13.3333V13.2743V13.2154V13.1567V13.0983V13.04V12.982V12.9242V12.8666V12.8092V12.752V12.6951V12.6383V12.5818V12.5255V12.4694V12.4134V12.3578V12.3023V12.247V12.192V12.1371V12.0825V12.0281V11.9739V11.9199V11.8661V11.8125V11.7591V11.706V11.6531V11.6003V11.5478V11.4955V11.4434V11.3915V11.3399V11.2884V11.2372V11.1861V11.1353V11.0847V11.0343V10.9841V10.9341V10.8844V10.8348V10.7855V10.7363V10.6874V10.6387V10.5902V10.5419V10.4939V10.446V10.3983V10.3509V10.3037V10.2566V10.2098V10.1632V10.1169V10.0707V10.0247V9.97896V9.93342V9.88808V9.84296V9.79805V9.75335V9.70886V9.66458V9.62052V9.57666V9.53301V9.48958V9.44635V9.40334V9.36054V9.31794V9.27556V9.23339V9.19143V9.14968V9.10814V9.0668V9.02569V8.98478V8.94408V8.90359V8.86331V8.82324V8.78338V8.74374V8.7043V8.66507V8.62606V8.58725V8.54865V8.51027V8.47209V8.43412V8.39637V8.35882V8.32149V8.28436V8.24745V8.21074V8.17424V8.13796V8.10188V8.06601V8.03036V7.99491V7.95967V7.92465V7.88983V7.85522V7.82082V7.78663V7.75266V7.71889V7.68533V7.65198V7.61884V7.58591V7.55319V7.52067V7.48837V7.45628V7.4244V7.39272V7.36126V7.33V7.29896V7.26812V7.23749V7.20707V7.17687V7.14687V7.11708V7.08749V7.05812V7.02896V7.00001V6.97126V6.94273V6.9144V6.88628V6.85837V6.83068V6.80318V6.7759V6.74883V6.72197V6.69531V6.66887V6.64263V6.6166V6.59078V6.56517V6.53977V6.51458V6.48959V6.46482V6.44025V6.41589V6.39174V6.3678V6.34407V6.32054V6.29723V6.27412V6.25122V6.22853V6.20605V6.18377V6.16171V6.13985V6.1182V6.09676V6.07553V6.05451V6.03369V6.01309V5.99269V5.9725V5.95251V5.93274V5.91317V5.89382V5.87467V5.85572V5.83699V5.81846V5.80015V5.78204V5.76413V5.74644V5.72895V5.71168V5.6946V5.67774V5.66109V5.64464V5.6284V5.61237V5.59655V5.58093V5.56552V5.55032V5.53533V5.52054V5.50596V5.49159V5.47743V5.46347V5.44973V5.43618V5.42285V5.40973V5.39681V5.3841V5.37159V5.3593V5.34721V5.33533V5.32365V5.31219V5.30093V5.28987V5.27903V5.27166C6.47908 5.23782 6.6136 5.19435 6.77628 5.14235C7.20241 5.00615 7.82169 4.8114 8.59313 4.57763C10.1362 4.11004 12.2871 3.48659 14.7181 2.86325C19.5907 1.61387 25.5511 0.375 30 0.375C34.4489 0.375 40.4093 1.61387 45.2819 2.86325C47.7129 3.48659 49.8638 4.11004 51.4069 4.57763C52.1783 4.8114 52.7976 5.00615 53.2237 5.14235Z"
        stroke="currentColor" stroke-width="0.75" stroke-miterlimit="10" />
    <path
        d="M28.9676 32.5718L39.7492 22L43 25.1875L28.9133 39L25.6625 35.8125L18 28.1927L21.2508 25.0052L28.9676 32.5718Z"
        stroke="currentColor" stroke-width="0.75" stroke-miterlimit="10" />
</svg>