<svg width="204" height="204" viewBox="0 0 204 204" fill="none" xmlns="http://www.w3.org/2000/svg">
    <path fill-rule="evenodd" clip-rule="evenodd"
        d="M50.5 101C22.6096 101 0 124.057 0 152.5C0 180.943 22.6096 204 50.5 204C78.3904 204 101 180.943 101 152.5C101 180.943 124.057 204 152.5 204C180.943 204 204 180.943 204 152.5C204 124.057 180.943 101 152.5 101C180.943 101 204 78.3904 204 50.5C204 22.6096 180.943 0 152.5 0C124.057 0 101 22.6096 101 50.5C101 22.6096 78.3904 0 50.5 0C22.6096 0 0 22.6096 0 50.5C0 78.3904 22.6096 101 50.5 101ZM50.5 101C78.3904 101 101 78.3904 101 50.5C101 78.3904 124.057 101 152.5 101C124.057 101 101 124.057 101 152.5C101 124.057 78.3904 101 50.5 101Z"
        fill="currentColor" />
</svg>